:SAMPLES-PER-SECOND 30
:FULLY-SPECIFIED
:DEGREES
437
root  -1.9942 40.9044 1.11279 176.166 -79.4483 -178.512
RightUpLeg  3.02032 -1.03673 -1.65884
RightLeg  0.336555 -9.7456 -0.410664
RightFoot  -0.0233707 -0.363765 3.63
RightToes  -3.13006e-008 1.75238e-005 3.56266e-009
Spine  -3.88979 -5.49458 -7.69943
Spine1  13.4614 -7.49886 6.94498
HEad  -14.9372 22.6608 -14.0334
LeftShoulder1  3.83353 -10.1837 -21.6703
LeftArm  12.7304 -65.4182 -81.9043
LeftForeArm  25.7291 -47.7216 -10.4356
LeftHand  -0.188468 -1.17717 3.47249
RightShoulder  4.75569 10.5401 27.8643
RightArm  -13.4296 17.8687 43.8048
RightForeArm  37.5099 74.2321 39.7762
RightHand  -0.685423 7.392 -6.56237
LeftUpLeg  5.13106 2.08374 2.04511
LeftLeg  -0.284109 21.8932 -0.952128
LeftFoot  -1.4689 0.236949 -2.65102
LeftToes  4.76866e-008 1.46233e-008 1.30548e-009
438
root  -1.98225 40.904 1.1365 175.671 -78.2985 -178.048
RightUpLeg  2.83522 -0.760216 -1.45924
RightLeg  0.425698 -8.89729 -0.549546
RightFoot  0.131262 -0.37081 3.71676
RightToes  -3.13006e-008 1.75238e-005 3.56266e-009
Spine  -3.69837 -5.20931 -6.982
Spine1  12.577 -6.99748 6.27607
HEad  -12.9195 23.31 -13.2844
LeftShoulder1  3.88439 -10.8417 -20.6691
LeftArm  15.4687 -67.5569 -83.843
LeftForeArm  21.615 -44.5139 -9.50853
LeftHand  0.000397416 -2.09611 0.181781
RightShoulder  4.695 10.6337 27.1926
RightArm  -18.8542 28.1576 45.6508
RightForeArm  28.6959 71.2824 32.4632
RightHand  -0.984957 7.45329 -9.23878
LeftUpLeg  5.26613 2.12042 2.08468
LeftLeg  -0.224441 22.9766 -0.842486
LeftFoot  -1.55938 0.246754 -2.78423
LeftToes  4.76866e-008 1.46233e-008 1.30548e-009
439
root  -1.97854 40.9039 1.15933 175.353 -77.479 -177.634
RightUpLeg  2.68779 -0.537503 -1.29395
RightLeg  0.276003 -8.34577 -0.603418
RightFoot  0.336237 -0.368616 3.62408
RightToes  -3.13006e-008 1.75238e-005 3.56266e-009
Spine  -3.18442 -5.3392 -6.47986
Spine1  11.4502 -7.029 5.9396
HEad  -11.2429 24.1598 -13.0643
LeftShoulder1  3.81557 -11.1785 -19.5013
LeftArm  16.7896 -69.7555 -85.5614
LeftForeArm  14.1386 -42.1941 -9.21429
LeftHand  0.0919308 -2.76547 -1.10952
RightShoulder  4.43812 10.6696 25.2138
RightArm  -22.3108 38.9764 47.8855
RightForeArm  19.3737 67.5193 26.66
RightHand  -1.01513 7.3124 -9.58654
LeftUpLeg  5.22218 2.23384 2.20128
LeftLeg  -0.10818 23.6178 -0.838177
LeftFoot  -1.65811 0.256519 -2.91645
LeftToes  4.76866e-008 1.46233e-008 1.30548e-009
440
root  -1.98995 40.9094 1.1959 175.923 -76.4571 -178.017
RightUpLeg  2.30511 -0.384718 -1.3198
RightLeg  0.347295 -7.4655 -0.732013
RightFoot  0.463493 -0.378891 3.69316
RightToes  -3.13006e-008 1.75238e-005 3.56266e-009
Spine  -2.99965 -5.43078 -5.6511
Spine1  10.5192 -6.89852 5.12215
HEad  -10.1997 25.0513 -13.0236
LeftShoulder1  3.90085 -11.8034 -18.956
LeftArm  15.4023 -71.9549 -85.3946
LeftForeArm  9.6729 -40.6973 -9.01004
LeftHand  0.149184 -2.45187 -2.01805
RightShoulder  3.90082 10.2806 22.0185
RightArm  -23.2412 49.2818 47.012
RightForeArm  11.9584 61.7424 20.4597
RightHand  -0.668494 6.14505 -7.02848
LeftUpLeg  5.42178 2.33453 2.16422
LeftLeg  -0.705289 24.5245 -1.26356
LeftFoot  -1.54636 0.256309 -2.89436
LeftToes  4.76866e-008 1.46233e-008 1.30548e-009
441
root  -2.01355 40.9152 1.25457 176.334 -75.5245 -178.083
RightUpLeg  1.75174 -0.290652 -1.37929
RightLeg  0.459349 -6.57716 -0.771578
RightFoot  0.609057 -0.394052 3.80214
RightToes  -3.13006e-008 1.75238e-005 3.56266e-009
Spine  -2.72492 -5.76011 -4.1776
Spine1  9.37422 -6.86742 3.58172
HEad  -9.57893 25.9109 -13.2248
LeftShoulder1  3.93784 -12.2446 -18.4331
LeftArm  9.63922 -74.0662 -82.3908
LeftForeArm  10.102 -40.2194 -8.82639
LeftHand  0.151725 -2.35609 -2.157
RightShoulder  3.10588 9.32461 17.625
RightArm  -23.397 58.6056 42.9957
RightForeArm  7.90088 54.5759 15.2775
RightHand  -0.171725 5.53194 -2.08757
LeftUpLeg  5.42105 2.31886 2.06119
LeftLeg  -1.27019 25.4759 -1.57942
LeftFoot  -1.38508 0.251752 -2.80687
LeftToes  4.76866e-008 1.46233e-008 1.30548e-009
442
root  -2.02327 40.9129 1.28886 177.125 -74.1661 -178.634
RightUpLeg  1.02383 -0.00389648 -1.37853
RightLeg  0.975091 -5.50564 -1.06676
RightFoot  0.613056 -0.406501 3.92032
RightToes  -3.13006e-008 1.75238e-005 3.56266e-009
Spine  -2.14191 -5.91691 -2.49459
Spine1  8.39043 -6.58365 1.53531
HEad  -10.3418 26.8917 -14.0245
LeftShoulder1  3.72352 -11.9972 -17.3748
LeftArm  2.0157 -75.5647 -79.5241
LeftForeArm  11.5667 -40.9423 -8.96834
LeftHand  0.00498439 -2.9308 0.183424
RightShoulder  2.28417 7.92347 12.9957
RightArm  -26.908 66.0058 35.9136
RightForeArm  8.28461 48.9501 12.2545
RightHand  0.396735 5.93992 3.69481
LeftUpLeg  5.46031 2.35725 1.93097
LeftLeg  -1.60406 26.7945 -1.89347
LeftFoot  -1.39617 0.269021 -3.0625
LeftToes  4.76866e-008 1.46233e-008 1.30548e-009
443
root  -2.0344 40.9043 1.30507 177.375 -72.3752 -178.445
RightUpLeg  0.0770867 0.482114 -1.13282
RightLeg  1.45531 -4.26104 -1.2845
RightFoot  0.691743 -0.408631 3.91807
RightToes  -3.13006e-008 1.75238e-005 3.56266e-009
Spine  -1.07121 -5.72952 -0.0967698
Spine1  6.39128 -5.86653 -1.00011
HEad  -10.597 27.6245 -13.9777
LeftShoulder1  3.52567 -11.7819 -16.3321
LeftArm  -9.6233 -75.3677 -75.0903
LeftForeArm  12.5385 -43.3409 -9.72627
LeftHand  -0.0255539 -2.24662 0.562219
RightShoulder  1.57077 6.3147 8.57013
RightArm  -35.9901 68.905 25.9021
RightForeArm  9.07676 46.8494 11.3128
RightHand  0.160027 6.30998 1.24312
LeftUpLeg  5.10064 2.66489 2.10378
LeftLeg  -1.33568 28.2434 -2.06209
LeftFoot  -1.62477 0.282842 -3.26934
LeftToes  4.76866e-008 1.46233e-008 1.30548e-009
444
root  -2.04439 40.9014 1.27929 178.303 -70.5866 -178.764
RightUpLeg  -1.16523 0.842221 -1.02286
RightLeg  2.11748 -2.89883 -1.44557
RightFoot  0.747197 -0.40612 3.88066
RightToes  -3.13006e-008 1.75238e-005 3.56266e-009
Spine  -0.645426 -5.52429 1.70292
Spine1  5.29524 -5.25408 -3.02384
HEad  -11.7616 28.1802 -14.4147
LeftShoulder1  3.38318 -11.3415 -16.0348
LeftArm  -21.3062 -74.1656 -69.5297
LeftForeArm  14.3124 -47.1767 -11.0756
LeftHand  -0.111982 -2.56346 1.85098
RightShoulder  1.13175 4.76577 6.01064
RightArm  -48.7834 69.9318 18.454
RightForeArm  9.33302 47.5198 11.588
RightHand  -0.0681415 6.74084 -0.990139
LeftUpLeg  4.64647 2.81284 2.1156
LeftLeg  -1.31775 29.872 -2.30926
LeftFoot  -1.69126 0.29544 -3.46332
LeftToes  4.76866e-008 1.46233e-008 1.30548e-009
445
root  -2.09 40.8947 1.20167 178.521 -69.3358 -178.503
RightUpLeg  -1.83936 1.222 -0.719169
RightLeg  2.34781 -2.11611 -1.49622
RightFoot  0.754341 -0.393983 3.76479
RightToes  -3.13006e-008 1.75238e-005 3.56266e-009
Spine  -0.0556804 -5.29855 3.08789
Spine1  4.08444 -4.76614 -4.44092
HEad  -12.7819 28.8918 -15.2631
LeftShoulder1  3.54138 -11.3854 -17.1254
LeftArm  -30.3355 -71.3454 -65.4186
LeftForeArm  17.3907 -52.227 -13.1579
LeftHand  -0.150482 -3.16145 2.27199
RightShoulder  0.976974 3.68922 5.86209
RightArm  -60.9034 69.2116 13.291
RightForeArm  7.68757 50.4483 13.0633
RightHand  -0.434094 7.08737 -4.36919
LeftUpLeg  4.16753 3.09566 2.38119
LeftLeg  -0.770892 30.7953 -2.21458
LeftFoot  -1.96315 0.306387 -3.63904
LeftToes  4.76866e-008 1.46233e-008 1.30548e-009
446
root  -2.14021 40.8863 1.08675 178.752 -68.3352 -178.375
RightUpLeg  -2.27349 1.45853 -0.453774
RightLeg  2.50033 -1.45922 -1.48258
RightFoot  0.660722 -0.371759 3.57738
RightToes  -3.13006e-008 1.75238e-005 3.56266e-009
Spine  -0.292116 -5.33731 3.3961
Spine1  4.22896 -4.75505 -4.71005
HEad  -13.9083 30.4974 -15.9178
LeftShoulder1  3.60147 -10.7577 -18.7119
LeftArm  -38.2139 -67.3831 -60.2431
LeftForeArm  19.7502 -57.8423 -16.3392
LeftHand  -0.233153 -3.40754 3.33107
RightShoulder  0.956156 3.30754 6.3575
RightArm  -69.3098 67.1917 11.0516
RightForeArm  7.41049 55.1566 15.7324
RightHand  -0.698222 6.99962 -6.88415
LeftUpLeg  3.84731 3.42321 2.7081
LeftLeg  -0.257342 31.4147 -2.18354
LeftFoot  -2.25065 0.321471 -3.88798
LeftToes  4.76866e-008 1.46233e-008 1.30548e-009
447
root  -2.20321 40.8808 0.926352 178.641 -67.8298 -178.032
RightUpLeg  -2.26169 1.5088 -0.163979
RightLeg  2.2893 -1.08792 -1.27761
RightFoot  0.583272 -0.339972 3.29124
RightToes  -3.13006e-008 1.75238e-005 3.56266e-009
Spine  -0.687649 -5.57966 3.32469
Spine1  4.49141 -5.01431 -4.63912
HEad  -15.0637 32.3644 -16.295
LeftShoulder1  3.85916 -10.421 -21.3521
LeftArm  -43.5945 -61.6359 -56.0337
LeftForeArm  23.1608 -63.7218 -21.0725
LeftHand  -0.314758 -3.01297 4.58535
RightShoulder  1.03577 3.40442 7.46779
RightArm  -73.5182 63.1921 11.098
RightForeArm  8.30867 60.5453 19.6503
RightHand  -0.621939 5.9434 -6.68013
LeftUpLeg  3.64127 3.70477 3.11619
LeftLeg  0.338007 31.5847 -1.94429
LeftFoot  -2.52891 0.344085 -4.26434
LeftToes  4.76866e-008 1.46233e-008 1.30548e-009
448
root  -2.27232 40.8744 0.728214 178.137 -67.5615 -177.671
RightUpLeg  -1.77231 1.51861 0.192078
RightLeg  2.09789 -0.902015 -1.10753
RightFoot  0.382729 -0.300072 2.94658
RightToes  -3.13006e-008 1.75238e-005 3.56266e-009
Spine  -0.901097 -5.88318 3.0124
Spine1  5.04008 -5.32567 -4.52427
HEad  -15.9524 33.0323 -16.2892
LeftShoulder1  4.08436 -10.1351 -23.7163
LeftArm  -46.3672 -53.5648 -52.9938
LeftForeArm  26.883 -68.9978 -27.9284
LeftHand  -0.469273 -2.26581 7.32332
RightShoulder  1.10476 3.0818 9.41767
RightArm  -73.4513 57.8673 12.5393
RightForeArm  13.4428 65.2307 24.1532
RightHand  -0.688318 5.86304 -7.39902
LeftUpLeg  3.85503 3.97401 3.56235
LeftLeg  0.909246 31.4948 -1.6067
LeftFoot  -2.76587 0.360239 -4.58245
LeftToes  4.76866e-008 1.46233e-008 1.30548e-009
449
root  -2.36793 40.8632 0.505935 177.261 -67.8109 -177.062
RightUpLeg  -0.985541 1.30507 0.53851
RightLeg  1.85236 -1.07678 -0.745238
RightFoot  0.0858162 -0.259109 2.59418
RightToes  -3.13006e-008 1.75238e-005 3.56266e-009
Spine  -1.84849 -6.38937 2.21842
Spine1  6.63046 -5.95373 -3.83968
HEad  -17.3145 34.4441 -16.7792
LeftShoulder1  4.22107 -9.78661 -25.6256
LeftArm  -47.7095 -43.6264 -51.1457
LeftForeArm  31.363 -73.2813 -37.772
LeftHand  -0.426076 -1.55364 7.27145
RightShoulder  1.3242 3.37171 12.2454
RightArm  -71.6896 51.6591 14.6621
RightForeArm  19.5653 69.6283 30.4363
RightHand  -0.606783 5.40291 -6.82669
LeftUpLeg  4.16556 4.31159 4.16654
LeftLeg  1.596 30.7877 -1.2129
LeftFoot  -3.10923 0.380842 -5.03384
LeftToes  4.76866e-008 1.46233e-008 1.30548e-009
450
root  -2.42783 40.8326 0.273912 176.739 -67.9835 -176.776
RightUpLeg  -0.638813 1.23648 0.884719
RightLeg  2.25028 -1.25974 -0.572522
RightFoot  -0.448681 -0.216298 2.23389
RightToes  -3.13006e-008 1.75238e-005 3.56266e-009
Spine  -2.66944 -6.90415 0.731516
Spine1  8.37502 -6.70771 -2.53719
HEad  -19.0334 35.747 -17.8805
LeftShoulder1  4.20727 -9.23903 -26.922
LeftArm  -47.7086 -32.176 -51.0614
LeftForeArm  38.3437 -76.2324 -49.9865
LeftHand  -0.34066 -0.961083 6.37525
RightShoulder  1.4576 3.10978 15.3048
RightArm  -67.2323 45.3683 18.0889
RightForeArm  26.5209 73.1814 38.6716
RightHand  -0.794555 5.47399 -8.77098
LeftUpLeg  4.13424 4.75464 4.76019
LeftLeg  2.86432 30.0314 -0.704187
LeftFoot  -3.65004 0.395975 -5.562
LeftToes  4.76866e-008 1.46233e-008 1.30548e-009
